<svg xmlns="http://www.w3.org/2000/svg" version="1.2" viewBox="0 0 500 500"><g fill-rule="evenodd"><path fill="#4285f4" d="M165.2 144.8c-10.9 0-19.7 8.8-19.7 19.7v169.7c0 10.8 8.8 19.6 19.7 19.6h7.6c.9 3.5 2.4 6.7 4.4 9.7 1.9 2.9 4.4 5.5 7.2 7.7 2.8 2.1 5.9 3.8 9.3 4.9 3.3 1.2 6.8 1.8 10.4 1.8 3.5 0 7-.6 10.4-1.8 3.3-1.1 6.5-2.8 9.3-4.9 2.8-2.2 5.2-4.8 7.2-7.8 1.9-2.9 3.4-6.1 4.3-9.6h33.3c1.7 0 3.4-.3 5-.9 1.6-.7 3-1.7 4.2-2.9 1.2-1.2 2.2-2.6 2.8-4.2.7-1.5 1-3.2 1-4.9V157.8l-13-13z"/><path fill="#c8d1db" d="M262.2 144.8q-.1 43 0 86.1l-27-15.2c-3.9-2.2-8.7.6-8.7 5v65.8c0 4.5 4.8 7.3 8.7 5.1l27-15.2v77.4h73.6c10.3 0 18.7-8.3 18.7-18.6V163.4c0-10.3-8.4-18.6-18.7-18.6z"/></g><circle cx="250" cy="250" r="198" fill="none" stroke="#ea5252" stroke-width="8"/></svg>